<svg id="Ebene_1" data-name="Ebene 1" xmlns="http://www.w3.org/2000/svg" viewBox="0 0 443.06 414.98"><defs><style>.cls-1{fill:#eb0400;}</style></defs><title>icon</title><path d="M253.17,444.77a174.66,174.66,0,0,1-34.47.72l-4.33-.39c-1.45-.13-2.9-.25-4.34-.48-2.87-.4-5.75-.84-8.64-1.29s-5.72-1.13-8.58-1.75c-1.45-.27-2.84-.69-4.26-1.05l-4.26-1.11A191.63,191.63,0,0,1,121,408.31a199.32,199.32,0,0,1-65.36-84.09c-1.08-2.8-2.2-5.6-3.2-8.43l-2.76-8.58c-.82-2.89-1.52-5.81-2.28-8.71-.18-.73-.38-1.45-.55-2.18l-.45-2.21c-.3-1.47-.61-2.94-.89-4.41a193.51,193.51,0,0,1-3.24-35.64,213.47,213.47,0,0,1,3.43-35.33l.84-4.33c.28-1.45.53-2.89.91-4.32l2.11-8.55,2.5-8.42c.39-1.4.88-2.78,1.37-4.16l1.44-4.13a245.18,245.18,0,0,1,14-31.82l4.2-7.58L77.53,138c3.13-4.83,6.29-9.65,9.73-14.27.85-1.16,1.64-2.36,2.54-3.48l2.67-3.4,2.65-3.4c.91-1.12,1.87-2.19,2.8-3.29,1.88-2.18,3.71-4.4,5.7-6.48l2.94-3.17c1-1,1.94-2.12,3-3.11a225.27,225.27,0,0,1,26-22.8A235,235,0,0,1,164.9,55.74a209.67,209.67,0,0,1,66.73-22.53,205.28,205.28,0,0,1,35.68-2.08l4.49.19c1.49.07,3,.09,4.48.26,3,.26,6,.58,9,.88s5.94.89,8.91,1.33c.74.12,1.49.22,2.23.36l2.2.45,4.42.91a218.93,218.93,0,0,1,34.56,10.54A208,208,0,0,1,369.9,62.44,210.78,210.78,0,0,1,399,84.15q3.36,3.09,6.66,6.22l6.35,6.54c4.1,4.49,8.16,9,11.83,13.87a204.92,204.92,0,0,1,19.73,30.63,195.86,195.86,0,0,1,13.79,33.67,206.47,206.47,0,0,1,7.69,35.44,216.18,216.18,0,0,1,1.21,36,200.25,200.25,0,0,1-16.21,69.29,191.91,191.91,0,0,1-39,58,4.93,4.93,0,0,1-7.58-6.25v0a208.31,208.31,0,0,0,28.13-58.51,199.16,199.16,0,0,0,8.25-62.9A199,199,0,0,0,353.32,88.07c-2.17-1.44-4.28-3-6.54-4.26l-3.34-2c-1.11-.67-2.21-1.37-3.37-2l-6.87-3.73-7.05-3.41a188.79,188.79,0,0,0-29.5-10.59l-3.81-1-1.9-.49c-.64-.15-1.29-.27-1.93-.41l-7.72-1.6c-2.59-.41-5.19-.8-7.79-1.25-1.3-.25-2.61-.34-3.92-.5l-3.93-.45a222.78,222.78,0,0,0-31.77-1,203,203,0,0,0-31.81,4.07,176.66,176.66,0,0,0-31,9.41,173.41,173.41,0,0,0-54.89,35.29c-3.93,3.84-7.83,7.73-11.37,11.94-.9,1-1.83,2.06-2.71,3.12l-2.56,3.23L97,125.69c-.85,1.08-1.6,2.23-2.41,3.35l-2.36,3.38-1.18,1.69L90,135.86c-1.43,2.35-2.92,4.66-4.27,7l-4,7.23-3.51,7.45a171.16,171.16,0,0,0-10.38,31.06l-.87,4c-.29,1.33-.59,2.65-.78,4l-1.28,8-.86,8.08c-.17,1.33-.21,2.69-.29,4l-.22,4a210.69,210.69,0,0,0,1.1,32.1,233.82,233.82,0,0,0,5.91,31.19,221.56,221.56,0,0,0,24.19,57.94c1.42,2.22,2.75,4.49,4.21,6.67l4.44,6.53,4.75,6.32c1.61,2.09,3.35,4.06,5,6.13a207.86,207.86,0,0,0,76.39,56.83l3.74,1.59c1.26.51,2.49,1.1,3.78,1.53,2.55.93,5.09,1.91,7.66,2.87l7.8,2.52c1.3.46,2.62.8,3.95,1.16l4,1.1a269.63,269.63,0,0,0,32.74,6.46h0a1.51,1.51,0,0,1,0,3Z" transform="translate(-42.22 -31.04)"/><polygon points="370.06 261.21 371.12 333.15 443.06 332.05 412.99 363.04 341.07 364.12 339.98 292.21 370.06 261.21"/><path class="cls-1" d="M253.66,444.93S220.32,405,222.49,389.17c1.88-13.63,32.33-32.48,45.93-30.34,9.07,1.43,23.47,19.52,23,28.7C290.43,404.67,253.66,444.93,253.66,444.93Zm3.07-73.8A18.25,18.25,0,1,0,275,389.37,18.25,18.25,0,0,0,256.73,371.13Z" transform="translate(-42.22 -31.04)"/><path d="M199,176s-5.21-4.06-5-6c3.36-31.06,87.21-67.81,123-22,25,32-3.5,63.33-14,81-9.27,15.61-40.7,39.36-45,57-2.21,9-1,19,4,37,3,10.95-29,35-29,35s-19-28,1-63c9.28-16.23,50-56,53-79,1.76-13.53,3.18-34.84-3-47-4.86-9.58-22.95-16-37-14C219,159,199,176,199,176Z" transform="translate(-42.22 -31.04)"/></svg>